<svg id="65019740-cd59-41b8-a475-370600d535fa" data-name="Layer 1" xmlns="http://www.w3.org/2000/svg" viewBox="0 0 502.75 391.13"><defs><style>.ec16cb35-cc49-450e-b5e5-94aa61039db1{fill:#fff;stroke:#000;stroke-miterlimit:10;stroke-width:4px;}.e001f705-89a6-4dc1-af56-09d860309878{fill:#630b26;}.\36 c64d0e1-162f-4c7d-a0e4-45e8a8408c05{fill:#8e1132;}.d1ea39bd-0db5-442a-889e-7bdff0d8c484{fill:#a30f2f;}.\37 9809514-963b-4300-968c-3774e6335385{fill:#bf1935;}</style></defs><title>impact-logo</title><path class="ec16cb35-cc49-450e-b5e5-94aa61039db1" d="M543.65,210.1l31.74-63.64-21.84-8.86L591,71,534.14,95.27,520.31,81,500.49,93.22,460.62,63.11,433.35,42.48,384.9,34.65l-47,20.22-61.25,7.87L226.28,97.57l-53.12,9.31L113.7,141.82,95,182.13l52,194.33,76,12.16,94.06-4.53,6.13-12.63,6,14.38,32.07,29.46,50.6,6.41,74.21-12.34,56.13-47.79,8.25-54.12Z" transform="translate(-92.88 -32.59)"/><polygon class="e001f705-89a6-4dc1-af56-09d860309878" points="53.53 152.57 124.88 344.16 142.78 301.43 77.64 156.13 53.53 152.57"/><polygon class="6c64d0e1-162f-4c7d-a0e4-45e8a8408c05" points="62.59 335.47 14.42 152.57 28.09 137.91 63.74 134.5 71.17 159.96 124.88 344.16 62.59 335.47"/><polygon class="6c64d0e1-162f-4c7d-a0e4-45e8a8408c05" points="28.46 117.92 78.64 86.44 61.23 128.6 28.03 132.38 16.12 145.33 28.46 117.92"/><polygon class="d1ea39bd-0db5-442a-889e-7bdff0d8c484" points="336.27 20.08 411.54 276.71 424.54 137.41 362.79 40.69 336.27 20.08"/><polygon class="d1ea39bd-0db5-442a-889e-7bdff0d8c484" points="131.94 93.74 220.52 342.76 241.21 286.07 161.45 98.34 131.94 93.74"/><polygon class="79809514-963b-4300-968c-3774e6335385" points="63.74 134.5 84.78 84.5 138.64 74.3 220.52 341.76 134.01 345.31 71.13 159.66 63.74 134.5"/><polygon class="d1ea39bd-0db5-442a-889e-7bdff0d8c484" points="254.28 62.08 333.54 314.71 343.54 254.41 283.79 76.69 254.28 62.08"/><polygon class="79809514-963b-4300-968c-3774e6335385" points="136.84 75.4 186.48 40.3 246.31 32.69 333.77 315.16 297.9 333.37 239.31 341.37 136.84 75.4"/><polygon class="79809514-963b-4300-968c-3774e6335385" points="346.94 310.07 243.09 33.77 290.8 13.43 336.51 19.98 411.54 276.71 346.94 310.07"/><polygon class="79809514-963b-4300-968c-3774e6335385" points="241.12 346.51 271.05 372.65 315.84 378.75 386.37 366.94 439.45 321.23 446.43 271.39 429.7 147.62 416.54 282.71 300.67 339.3 241.12 346.51"/></svg>